<svg width="24" height="24" viewBox="0 0 24 24" fill="none" xmlns="http://www.w3.org/2000/svg">
<path d="M8.5 22.5V15.5C8.5 14.8812 8.74583 14.2877 9.18342 13.8501C9.621 13.4125 10.2145 13.1667 10.8333 13.1667H13.1667C13.7855 13.1667 14.379 13.4125 14.8166 13.8501C15.2542 14.2877 15.5 14.8812 15.5 15.5V22.5M3.83333 12H1.5L12 1.5L22.5 12H20.1667V20.1667C20.1667 20.7855 19.9208 21.379 19.4832 21.8166C19.0457 22.2542 18.4522 22.5 17.8333 22.5H6.16667C5.54783 22.5 4.95434 22.2542 4.51675 21.8166C4.07917 21.379 3.83333 20.7855 3.83333 20.1667V12Z" stroke="white" stroke-width="1.5" stroke-linecap="round" stroke-linejoin="round"/>
</svg>
