<svg width="24" height="22" viewBox="0 0 24 22" fill="none" xmlns="http://www.w3.org/2000/svg">
<path d="M8.5 19.1665V12.1665C8.5 11.8571 8.37708 11.5603 8.15829 11.3415C7.9395 11.1228 7.64275 10.9998 7.33333 10.9998H2.66667C2.35725 10.9998 2.0605 11.1228 1.84171 11.3415C1.62292 11.5603 1.5 11.8571 1.5 12.1665V19.1665C1.5 19.4759 1.62292 19.7727 1.84171 19.9915C2.0605 20.2103 2.35725 20.3332 2.66667 20.3332M8.5 19.1665C8.5 19.4759 8.37708 19.7727 8.15829 19.9915C7.9395 20.2103 7.64275 20.3332 7.33333 20.3332H2.66667M8.5 19.1665C8.5 19.4759 8.62292 19.7727 8.84171 19.9915C9.0605 20.2103 9.35725 20.3332 9.66667 20.3332H14.3333C14.6428 20.3332 14.9395 20.2103 15.1583 19.9915C15.3771 19.7727 15.5 19.4759 15.5 19.1665M8.5 19.1665V7.49984C8.5 7.19042 8.62292 6.89367 8.84171 6.67488C9.0605 6.45609 9.35725 6.33317 9.66667 6.33317H14.3333C14.6428 6.33317 14.9395 6.45609 15.1583 6.67488C15.3771 6.89367 15.5 7.19042 15.5 7.49984V19.1665M2.66667 20.3332H19M15.5 19.1665C15.5 19.4759 15.6229 19.7727 15.8417 19.9915C16.0605 20.2103 16.3572 20.3332 16.6667 20.3332H21.3333C21.6428 20.3332 21.9395 20.2103 22.1583 19.9915C22.3771 19.7727 22.5 19.4759 22.5 19.1665V2.83317C22.5 2.52375 22.3771 2.22701 22.1583 2.00821C21.9395 1.78942 21.6428 1.6665 21.3333 1.6665H16.6667C16.3572 1.6665 16.0605 1.78942 15.8417 2.00821C15.6229 2.22701 15.5 2.52375 15.5 2.83317V19.1665Z" stroke="white" stroke-width="1.5" stroke-linecap="round" stroke-linejoin="round"/>
</svg>
