<svg width="48" height="48" viewBox="0 0 48 48" fill="none" xmlns="http://www.w3.org/2000/svg">
<rect x="0.5" y="0.5" width="47" height="47" rx="23.5" stroke="black"/>
<rect x="0.5" y="0.5" width="47" height="47" rx="23.5" stroke="url(#paint0_linear_863_429)"/>
<rect x="0.5" y="0.5" width="47" height="47" rx="23.5" stroke="url(#paint1_linear_863_429)"/>
<path d="M20.5 32.1665V25.1665C20.5 24.8571 20.3771 24.5603 20.1583 24.3415C19.9395 24.1228 19.6428 23.9998 19.3333 23.9998H14.6667C14.3572 23.9998 14.0605 24.1228 13.8417 24.3415C13.6229 24.5603 13.5 24.8571 13.5 25.1665V32.1665C13.5 32.4759 13.6229 32.7727 13.8417 32.9915C14.0605 33.2103 14.3572 33.3332 14.6667 33.3332M20.5 32.1665C20.5 32.4759 20.3771 32.7727 20.1583 32.9915C19.9395 33.2103 19.6428 33.3332 19.3333 33.3332H14.6667M20.5 32.1665C20.5 32.4759 20.6229 32.7727 20.8417 32.9915C21.0605 33.2103 21.3572 33.3332 21.6667 33.3332H26.3333C26.6428 33.3332 26.9395 33.2103 27.1583 32.9915C27.3771 32.7727 27.5 32.4759 27.5 32.1665M20.5 32.1665V20.4998C20.5 20.1904 20.6229 19.8937 20.8417 19.6749C21.0605 19.4561 21.3572 19.3332 21.6667 19.3332H26.3333C26.6428 19.3332 26.9395 19.4561 27.1583 19.6749C27.3771 19.8937 27.5 20.1904 27.5 20.4998V32.1665M14.6667 33.3332H31M27.5 32.1665C27.5 32.4759 27.6229 32.7727 27.8417 32.9915C28.0605 33.2103 28.3572 33.3332 28.6667 33.3332H33.3333C33.6428 33.3332 33.9395 33.2103 34.1583 32.9915C34.3771 32.7727 34.5 32.4759 34.5 32.1665V15.8332C34.5 15.5238 34.3771 15.227 34.1583 15.0082C33.9395 14.7894 33.6428 14.6665 33.3333 14.6665H28.6667C28.3572 14.6665 28.0605 14.7894 27.8417 15.0082C27.6229 15.227 27.5 15.5238 27.5 15.8332V32.1665Z" stroke="white" stroke-width="1.5" stroke-linecap="round" stroke-linejoin="round"/>
<defs>
<linearGradient id="paint0_linear_863_429" x1="24" y1="0" x2="24" y2="47.8599" gradientUnits="userSpaceOnUse">
<stop stop-color="#0F0700"/>
<stop offset="1" stop-color="#2D1500"/>
</linearGradient>
<linearGradient id="paint1_linear_863_429" x1="25.9149" y1="13.7872" x2="37.3774" y2="49.2068" gradientUnits="userSpaceOnUse">
<stop stop-color="#EDF722"/>
<stop offset="1" stop-color="#2CED90"/>
</linearGradient>
</defs>
</svg>
