<svg width="28" height="28" viewBox="0 0 28 28" fill="none" xmlns="http://www.w3.org/2000/svg">
<g opacity="0.5">
<path d="M10.5 22.1665V15.1665C10.5 14.8571 10.3771 14.5603 10.1583 14.3415C9.9395 14.1228 9.64275 13.9998 9.33333 13.9998H4.66667C4.35725 13.9998 4.0605 14.1228 3.84171 14.3415C3.62292 14.5603 3.5 14.8571 3.5 15.1665V22.1665C3.5 22.4759 3.62292 22.7727 3.84171 22.9915C4.0605 23.2103 4.35725 23.3332 4.66667 23.3332M10.5 22.1665C10.5 22.4759 10.3771 22.7727 10.1583 22.9915C9.9395 23.2103 9.64275 23.3332 9.33333 23.3332H4.66667M10.5 22.1665C10.5 22.4759 10.6229 22.7727 10.8417 22.9915C11.0605 23.2103 11.3572 23.3332 11.6667 23.3332H16.3333C16.6428 23.3332 16.9395 23.2103 17.1583 22.9915C17.3771 22.7727 17.5 22.4759 17.5 22.1665M10.5 22.1665V10.4998C10.5 10.1904 10.6229 9.89367 10.8417 9.67488C11.0605 9.45609 11.3572 9.33317 11.6667 9.33317H16.3333C16.6428 9.33317 16.9395 9.45609 17.1583 9.67488C17.3771 9.89367 17.5 10.1904 17.5 10.4998V22.1665M4.66667 23.3332H21M17.5 22.1665C17.5 22.4759 17.6229 22.7727 17.8417 22.9915C18.0605 23.2103 18.3572 23.3332 18.6667 23.3332H23.3333C23.6428 23.3332 23.9395 23.2103 24.1583 22.9915C24.3771 22.7727 24.5 22.4759 24.5 22.1665V5.83317C24.5 5.52375 24.3771 5.22701 24.1583 5.00821C23.9395 4.78942 23.6428 4.6665 23.3333 4.6665H18.6667C18.3572 4.6665 18.0605 4.78942 17.8417 5.00821C17.6229 5.22701 17.5 5.52375 17.5 5.83317V22.1665Z" stroke="white" stroke-width="1.5" stroke-linecap="round" stroke-linejoin="round"/>
</g>
</svg>
