<svg width="48" height="48" viewBox="0 0 48 48" fill="none" xmlns="http://www.w3.org/2000/svg">
<rect x="0.5" y="0.5" width="47" height="47" rx="23.5" stroke="black"/>
<rect x="0.5" y="0.5" width="47" height="47" rx="23.5" stroke="url(#paint0_linear_863_27)"/>
<rect x="0.5" y="0.5" width="47" height="47" rx="23.5" stroke="url(#paint1_linear_863_27)"/>
<path d="M14.6667 18.1667H18.1667C18.4761 18.1667 18.7728 18.0437 18.9916 17.825C19.2104 17.6062 19.3333 17.3094 19.3333 17V15.8333C19.3333 15.2145 19.5792 14.621 20.0168 14.1834C20.4543 13.7458 21.0478 13.5 21.6667 13.5C22.2855 13.5 22.879 13.7458 23.3166 14.1834C23.7542 14.621 24 15.2145 24 15.8333V17C24 17.3094 24.1229 17.6062 24.3417 17.825C24.5605 18.0437 24.8572 18.1667 25.1667 18.1667H28.6667C28.9761 18.1667 29.2728 18.2896 29.4916 18.5084C29.7104 18.7272 29.8333 19.0239 29.8333 19.3333V22.8333C29.8333 23.1428 29.9562 23.4395 30.175 23.6583C30.3938 23.8771 30.6906 24 31 24H32.1667C32.7855 24 33.379 24.2458 33.8166 24.6834C34.2542 25.121 34.5 25.7145 34.5 26.3333C34.5 26.9522 34.2542 27.5457 33.8166 27.9832C33.379 28.4208 32.7855 28.6667 32.1667 28.6667H31C30.6906 28.6667 30.3938 28.7896 30.175 29.0084C29.9562 29.2272 29.8333 29.5239 29.8333 29.8333V33.3333C29.8333 33.6428 29.7104 33.9395 29.4916 34.1583C29.2728 34.3771 28.9761 34.5 28.6667 34.5H25.1667C24.8572 34.5 24.5605 34.3771 24.3417 34.1583C24.1229 33.9395 24 33.6428 24 33.3333V32.1667C24 31.5478 23.7542 30.9543 23.3166 30.5168C22.879 30.0792 22.2855 29.8333 21.6667 29.8333C21.0478 29.8333 20.4543 30.0792 20.0168 30.5168C19.5792 30.9543 19.3333 31.5478 19.3333 32.1667V33.3333C19.3333 33.6428 19.2104 33.9395 18.9916 34.1583C18.7728 34.3771 18.4761 34.5 18.1667 34.5H14.6667C14.3572 34.5 14.0605 34.3771 13.8417 34.1583C13.6229 33.9395 13.5 33.6428 13.5 33.3333V29.8333C13.5 29.5239 13.6229 29.2272 13.8417 29.0084C14.0605 28.7896 14.3572 28.6667 14.6667 28.6667H15.8333C16.4522 28.6667 17.0457 28.4208 17.4832 27.9832C17.9208 27.5457 18.1667 26.9522 18.1667 26.3333C18.1667 25.7145 17.9208 25.121 17.4832 24.6834C17.0457 24.2458 16.4522 24 15.8333 24H14.6667C14.3572 24 14.0605 23.8771 13.8417 23.6583C13.6229 23.4395 13.5 23.1428 13.5 22.8333V19.3333C13.5 19.0239 13.6229 18.7272 13.8417 18.5084C14.0605 18.2896 14.3572 18.1667 14.6667 18.1667Z" stroke="white" stroke-width="1.5" stroke-linecap="round" stroke-linejoin="round"/>
<defs>
<linearGradient id="paint0_linear_863_27" x1="24" y1="0" x2="24" y2="47.8599" gradientUnits="userSpaceOnUse">
<stop stop-color="#0F0700"/>
<stop offset="1" stop-color="#2D1500"/>
</linearGradient>
<linearGradient id="paint1_linear_863_27" x1="25.9149" y1="13.7872" x2="37.3774" y2="49.2068" gradientUnits="userSpaceOnUse">
<stop stop-color="#EDF722"/>
<stop offset="1" stop-color="#2CED90"/>
</linearGradient>
</defs>
</svg>
