<svg width="16" height="24" viewBox="0 0 16 24" fill="none" xmlns="http://www.w3.org/2000/svg">
<path opacity="0.5" d="M1 22.5V20.1667C1 18.929 1.49167 17.742 2.36683 16.8668C3.242 15.9917 4.42899 15.5 5.66667 15.5H10.3333C11.571 15.5 12.758 15.9917 13.6332 16.8668C14.5083 17.742 15 18.929 15 20.1667V22.5M3.33333 6.16667C3.33333 7.40434 3.825 8.59133 4.70017 9.4665C5.57534 10.3417 6.76232 10.8333 8 10.8333C9.23768 10.8333 10.4247 10.3417 11.2998 9.4665C12.175 8.59133 12.6667 7.40434 12.6667 6.16667C12.6667 4.92899 12.175 3.742 11.2998 2.86683C10.4247 1.99167 9.23768 1.5 8 1.5C6.76232 1.5 5.57534 1.99167 4.70017 2.86683C3.825 3.742 3.33333 4.92899 3.33333 6.16667Z" stroke="white" stroke-width="1.5" stroke-linecap="round" stroke-linejoin="round"/>
</svg>
