<svg width="28" height="28" viewBox="0 0 28 28" fill="none" xmlns="http://www.w3.org/2000/svg">
<path opacity="0.5" d="M7 24.5V22.1667C7 20.929 7.49167 19.742 8.36683 18.8668C9.242 17.9917 10.429 17.5 11.6667 17.5H16.3333C17.571 17.5 18.758 17.9917 19.6332 18.8668C20.5083 19.742 21 20.929 21 22.1667V24.5M9.33333 8.16667C9.33333 9.40434 9.825 10.5913 10.7002 11.4665C11.5753 12.3417 12.7623 12.8333 14 12.8333C15.2377 12.8333 16.4247 12.3417 17.2998 11.4665C18.175 10.5913 18.6667 9.40434 18.6667 8.16667C18.6667 6.92899 18.175 5.742 17.2998 4.86683C16.4247 3.99167 15.2377 3.5 14 3.5C12.7623 3.5 11.5753 3.99167 10.7002 4.86683C9.825 5.742 9.33333 6.92899 9.33333 8.16667Z" stroke="white" stroke-width="1.5" stroke-linecap="round" stroke-linejoin="round"/>
</svg>
