<svg width="48" height="48" viewBox="0 0 48 48" fill="none" xmlns="http://www.w3.org/2000/svg">
<rect x="0.5" y="0.5" width="47" height="47" rx="23.5" stroke="black"/>
<rect x="0.5" y="0.5" width="47" height="47" rx="23.5" stroke="url(#paint0_linear_141_874)"/>
<rect x="0.5" y="0.5" width="47" height="47" rx="23.5" stroke="url(#paint1_linear_141_874)"/>
<path d="M16.9993 20.5002H23.9993M14.666 15.8335H19.3327M16.9993 15.8335V28.6668C16.9993 28.9762 17.1223 29.273 17.3411 29.4918C17.5599 29.7106 17.8566 29.8335 18.166 29.8335H23.9993M23.9993 19.3335C23.9993 19.0241 24.1223 18.7273 24.3411 18.5085C24.5599 18.2897 24.8566 18.1668 25.166 18.1668H32.166C32.4754 18.1668 32.7722 18.2897 32.991 18.5085C33.2098 18.7273 33.3327 19.0241 33.3327 19.3335V21.6668C33.3327 21.9762 33.2098 22.273 32.991 22.4918C32.7722 22.7106 32.4754 22.8335 32.166 22.8335H25.166C24.8566 22.8335 24.5599 22.7106 24.3411 22.4918C24.1223 22.273 23.9993 21.9762 23.9993 21.6668V19.3335ZM23.9993 28.6668C23.9993 28.3574 24.1223 28.0607 24.3411 27.8419C24.5599 27.6231 24.8566 27.5002 25.166 27.5002H32.166C32.4754 27.5002 32.7722 27.6231 32.991 27.8419C33.2098 28.0607 33.3327 28.3574 33.3327 28.6668V31.0002C33.3327 31.3096 33.2098 31.6063 32.991 31.8251C32.7722 32.0439 32.4754 32.1668 32.166 32.1668H25.166C24.8566 32.1668 24.5599 32.0439 24.3411 31.8251C24.1223 31.6063 23.9993 31.3096 23.9993 31.0002V28.6668Z" stroke="white" stroke-width="1.5" stroke-linecap="round" stroke-linejoin="round"/>
<defs>
<linearGradient id="paint0_linear_141_874" x1="24" y1="0" x2="24" y2="47.8599" gradientUnits="userSpaceOnUse">
<stop stop-color="#0F0700"/>
<stop offset="1" stop-color="#2D1500"/>
</linearGradient>
<linearGradient id="paint1_linear_141_874" x1="25.9149" y1="13.7872" x2="37.3774" y2="49.2068" gradientUnits="userSpaceOnUse">
<stop stop-color="#EDF722"/>
<stop offset="1" stop-color="#2CED90"/>
</linearGradient>
</defs>
</svg>
