<svg width="22" height="18" viewBox="0 0 22 18" fill="none" xmlns="http://www.w3.org/2000/svg">
<path d="M3.99935 5.50016H10.9993M1.66602 0.833496H6.33268M3.99935 0.833496V13.6668C3.99935 13.9762 4.12227 14.273 4.34106 14.4918C4.55985 14.7106 4.8566 14.8335 5.16602 14.8335H10.9993M10.9993 4.3335C10.9993 4.02408 11.1223 3.72733 11.3411 3.50854C11.5599 3.28975 11.8566 3.16683 12.166 3.16683H19.166C19.4754 3.16683 19.7722 3.28975 19.991 3.50854C20.2098 3.72733 20.3327 4.02408 20.3327 4.3335V6.66683C20.3327 6.97625 20.2098 7.27299 19.991 7.49179C19.7722 7.71058 19.4754 7.8335 19.166 7.8335H12.166C11.8566 7.8335 11.5599 7.71058 11.3411 7.49179C11.1223 7.27299 10.9993 6.97625 10.9993 6.66683V4.3335ZM10.9993 13.6668C10.9993 13.3574 11.1223 13.0607 11.3411 12.8419C11.5599 12.6231 11.8566 12.5002 12.166 12.5002H19.166C19.4754 12.5002 19.7722 12.6231 19.991 12.8419C20.2098 13.0607 20.3327 13.3574 20.3327 13.6668V16.0002C20.3327 16.3096 20.2098 16.6063 19.991 16.8251C19.7722 17.0439 19.4754 17.1668 19.166 17.1668H12.166C11.8566 17.1668 11.5599 17.0439 11.3411 16.8251C11.1223 16.6063 10.9993 16.3096 10.9993 16.0002V13.6668Z" stroke="white" stroke-width="1.5" stroke-linecap="round" stroke-linejoin="round"/>
</svg>
