<svg width="28" height="28" viewBox="0 0 28 28" fill="none" xmlns="http://www.w3.org/2000/svg">
<g opacity="0.5">
<path d="M6.99935 10.5002H13.9993M4.66602 5.8335H9.33268M6.99935 5.8335V18.6668C6.99935 18.9762 7.12227 19.273 7.34106 19.4918C7.55985 19.7106 7.8566 19.8335 8.16602 19.8335H13.9993M13.9993 9.3335C13.9993 9.02408 14.1223 8.72733 14.3411 8.50854C14.5599 8.28975 14.8566 8.16683 15.166 8.16683H22.166C22.4754 8.16683 22.7722 8.28975 22.991 8.50854C23.2098 8.72733 23.3327 9.02408 23.3327 9.3335V11.6668C23.3327 11.9762 23.2098 12.273 22.991 12.4918C22.7722 12.7106 22.4754 12.8335 22.166 12.8335H15.166C14.8566 12.8335 14.5599 12.7106 14.3411 12.4918C14.1223 12.273 13.9993 11.9762 13.9993 11.6668V9.3335ZM13.9993 18.6668C13.9993 18.3574 14.1223 18.0607 14.3411 17.8419C14.5599 17.6231 14.8566 17.5002 15.166 17.5002H22.166C22.4754 17.5002 22.7722 17.6231 22.991 17.8419C23.2098 18.0607 23.3327 18.3574 23.3327 18.6668V21.0002C23.3327 21.3096 23.2098 21.6063 22.991 21.8251C22.7722 22.0439 22.4754 22.1668 22.166 22.1668H15.166C14.8566 22.1668 14.5599 22.0439 14.3411 21.8251C14.1223 21.6063 13.9993 21.3096 13.9993 21.0002V18.6668Z" stroke="white" stroke-width="1.5" stroke-linecap="round" stroke-linejoin="round"/>
</g>
</svg>
